<svg width="38" height="32" viewBox="0 0 38 32" fill="none" xmlns="http://www.w3.org/2000/svg">
<path d="M21.3787 0.769531C21.7732 1.66611 21.9718 2.42693 21.9718 3.46696C21.9718 7.55538 18.4774 10.991 14.389 10.991C13.4924 10.991 12.6445 10.7406 11.8555 10.4537C13.8638 13.3586 17.235 15.2952 21.0365 15.3669H21.0723C21.1082 15.3669 21.1441 15.3669 21.1799 15.3669C21.3951 15.3669 21.5744 15.3669 21.7896 15.3669C22.7938 15.3311 23.5116 15.0212 24.4441 14.7343C25.6993 13.1563 26.4912 11.3295 26.4912 9.17771C26.5271 5.30447 24.6422 2.20406 21.3787 0.769531Z" fill="white"/>
<mask id="mask0_2048_470" style="mask-type:luminance" maskUnits="userSpaceOnUse" x="1" y="5" width="36" height="26">
<path d="M21.5361 15.3669C17.1607 15.3669 13.3233 12.964 11.2791 9.41355C10.3826 7.72797 8.58939 6.54448 6.50932 6.54448C4.10647 6.54448 2.06226 8.12247 1.38086 10.2743C4.07061 10.4177 6.22241 12.6412 6.22241 15.3669C6.22241 23.7947 13.0364 30.6088 21.4643 30.6088C29.8922 30.6088 36.7062 23.7947 36.7062 15.3669C36.7062 11.6371 35.3793 8.23006 33.1558 5.57617C32.2233 11.135 27.3818 15.3669 21.5361 15.3669Z" fill="white"/>
</mask>
<g mask="url(#mask0_2048_470)">
<path d="M36.7436 5.57617H1.38232V30.6088H36.7436V5.57617Z" fill="url(#paint0_linear_2048_470)"/>
</g>
<mask id="mask1_2048_470" style="mask-type:luminance" maskUnits="userSpaceOnUse" x="0" y="0" width="38" height="32">
<path d="M33.1945 5.57653C35.4181 8.23042 36.745 11.6374 36.745 15.3672C36.745 23.7951 29.931 30.6091 21.5031 30.6091C13.0752 30.6091 6.22532 23.7951 6.22532 15.3672C6.22532 12.6416 4.07352 10.4181 1.34791 10.3105C2.06517 8.15869 4.07352 6.5807 6.47636 6.5807C8.52057 6.5807 10.3137 7.72833 11.2462 9.44977C11.4614 9.8084 11.6765 10.1312 11.8917 10.4898C11.8917 10.4898 11.9276 10.5257 11.8917 10.4898C13.649 13.0361 16.3746 14.8293 19.6023 15.2596C20.212 15.3672 20.8576 15.4031 21.4672 15.4031C27.3847 15.3672 32.2262 11.1353 33.1945 5.57653ZM22.328 3.42473C22.328 2.77919 22.2562 2.16951 22.1128 1.55984C24.6591 3.13782 26.2371 5.93516 26.2371 8.98355C26.2371 10.9202 25.6274 12.7492 24.4439 14.2913C23.5832 14.5424 22.7225 14.7217 21.8259 14.7575C21.6107 14.7575 21.4314 14.7575 21.2521 14.7575C21.2162 14.7575 21.1803 14.7575 21.1445 14.7575C20.6782 14.7575 20.2479 14.7217 19.8175 14.65C17.343 14.2555 15.0836 13.0361 13.3621 11.2429C13.7208 11.2788 14.0794 11.3147 14.4739 11.3147C18.7775 11.3505 22.328 7.80006 22.328 3.42473ZM21.8259 3.42473C21.8259 7.51315 18.4906 10.8484 14.4022 10.8484C13.8283 10.8484 13.2904 10.7767 12.7524 10.6691C12.3579 10.2029 12.0352 9.70081 11.7124 9.16286L11.569 8.91182C10.4931 7.15452 8.5923 6.04275 6.51223 6.04275C3.93007 6.04275 1.67068 7.69247 0.881684 10.1312L0.666504 10.7767L1.34791 10.8126C3.78661 10.9202 5.72323 12.9285 5.72323 15.3672C5.72323 24.0461 12.7883 31.1112 21.4672 31.1112C30.1462 31.1112 37.2112 24.0461 37.2112 15.3672C37.2112 11.6733 35.9202 8.08696 33.5532 5.25376L32.8359 4.4289L32.6566 5.5048C31.9393 9.73668 28.9268 13.0361 25.0536 14.3272C26.0936 12.8209 26.7033 11.0278 26.7033 9.05527C26.7391 5.2179 24.4798 1.9902 21.2162 0.555664C21.6107 1.41638 21.8259 2.42056 21.8259 3.42473Z" fill="white"/>
</mask>
<g mask="url(#mask1_2048_470)">
<path d="M37.2837 0.555664H0.703125V31.1471H37.2837V0.555664Z" fill="#C8C8CB"/>
</g>
<path d="M36.7443 15.2593C33.7676 18.7022 29.3564 20.8899 24.4432 20.8899C18.1312 20.8899 12.6441 17.2677 9.95437 11.9958H9.9185C8.91433 10.2743 7.01357 9.09082 4.86177 9.09082C3.53483 9.09082 2.31548 9.52118 1.34717 10.2743C4.07278 10.3819 6.22458 12.6413 6.22458 15.3669C6.22458 23.7948 13.0386 30.6088 21.4665 30.6088C29.8944 30.6088 36.7084 23.7948 36.7084 15.3669C36.7443 15.331 36.7443 15.2952 36.7443 15.2593Z" fill="#D8322E"/>
<path d="M10.7441 15.3672C10.7441 15.2237 10.7441 15.0803 10.7441 14.9727C10.7441 11.745 8.12609 9.12695 4.89839 9.12695C3.57145 9.12695 2.3521 9.55731 1.38379 10.3104C4.07354 10.3822 6.22534 12.6416 6.22534 15.3672C6.22534 23.7592 13.0394 30.5732 21.4314 30.6091C15.1912 28.3497 10.7441 22.3605 10.7441 15.3672Z" fill="#B03639"/>
<defs>
<linearGradient id="paint0_linear_2048_470" x1="1.379" y1="18.0881" x2="36.7487" y2="18.0881" gradientUnits="userSpaceOnUse">
<stop stop-color="#1D75BB"/>
<stop offset="0.1531" stop-color="#1C62A5"/>
<stop offset="0.3744" stop-color="#1B407F"/>
<stop offset="0.5015" stop-color="#1D3770"/>
<stop offset="0.7727" stop-color="#212754"/>
<stop offset="0.931" stop-color="#22214A"/>
<stop offset="1" stop-color="#22214A"/>
</linearGradient>
</defs>
</svg>
