<svg width="135" height="48" viewBox="0 0 135 48" fill="none" xmlns="http://www.w3.org/2000/svg">
    <g clip-path="url(#clip0_10897_14341)">
        <path fill-rule="evenodd" clip-rule="evenodd"
              d="M16.4325 22.6199H21.6099V2.81983H16.4325V22.6199ZM13.6038 25.4417H24.4366V0H13.6038V25.4417Z"
              fill="white"/>
        <path fill-rule="evenodd" clip-rule="evenodd" d="M0 31.0238H46.0458V28.2129H0V31.0238Z" fill="white"/>
        <path fill-rule="evenodd" clip-rule="evenodd"
              d="M2.8183 42.0083H16.1278V36.6422H2.8183V42.0083ZM0 48.0006H2.81822V44.8158H18.9467V33.832H0V48.0006Z"
              fill="white"/>
        <path fill-rule="evenodd" clip-rule="evenodd"
              d="M35.2133 2.8191V25.4413H38.0401V8.46252L43.2164 2.82134V25.4413H46.0462V0H42.0729L38.0401 4.38203V0H34.0686L27.2058 7.39497V25.4413H30.0362V8.46364L35.2133 2.8191Z"
              fill="white"/>
        <path fill-rule="evenodd" clip-rule="evenodd"
              d="M24.5228 42.0083H32.3757V36.6422H24.5228V42.0083ZM35.3159 42.0083H43.2285V36.6422H35.3159V42.0083ZM21.7031 44.8158H32.376V48.0006H35.3159V44.8158H46.0463V33.832H21.7031V44.8158Z"
              fill="white"/>
        <path fill-rule="evenodd" clip-rule="evenodd"
              d="M2.8301 8.46438L8.00539 2.82208V22.6203H2.8301V8.46438ZM10.8344 25.4413V0H6.86254L0.000488281 7.39497V25.4413H10.8344Z"
              fill="white"/>
        <path d="M60.6978 0H58.6047V48H60.6978V0Z" fill="#A3D562"/>
        <path d="M79.9702 29.4335C78.2065 29.4335 76.7441 28.8547 75.5832 27.6972C74.4223 26.5285 73.8418 25.0871 73.8418 23.373C73.8418 21.6589 74.4223 20.2231 75.5832 19.0655C76.7441 17.8968 78.2065 17.3125 79.9702 17.3125C81.0306 17.3125 82.0074 17.5629 82.9004 18.0638C83.8046 18.5647 84.5078 19.2437 85.0102 20.1007L83.3358 21.069C83.0232 20.4902 82.5655 20.0339 81.9627 19.7C81.3711 19.3549 80.7069 19.1824 79.9702 19.1824C78.7199 19.1824 77.7042 19.5776 76.9227 20.3678C76.1525 21.158 75.7674 22.1598 75.7674 23.373C75.7674 24.5863 76.1525 25.588 76.9227 26.3782C77.7042 27.1685 78.7199 27.5636 79.9702 27.5636C80.7069 27.5636 81.3767 27.3967 81.9795 27.0628C82.5823 26.7177 83.0344 26.2558 83.3358 25.677L85.0102 26.6287C84.519 27.4857 83.8213 28.1702 82.9172 28.6822C82.0242 29.1831 81.0418 29.4335 79.9702 29.4335ZM94.0257 20.8687V29.2165H92.2173V22.5716H88.3829V29.2165H86.5745V20.8687H94.0257ZM100.863 20.6516C102.012 20.6516 102.995 21.0802 103.809 21.9372C104.624 22.7831 105.032 23.8183 105.032 25.0426C105.032 26.2781 104.624 27.3187 103.809 28.1647C102.995 29.0106 102.012 29.4335 100.863 29.4335C99.59 29.4335 98.6132 28.9661 97.9323 28.0311V32.5556H96.1239V20.8687H97.9323V22.0708C98.6132 21.1246 99.59 20.6516 100.863 20.6516ZM98.6858 26.9626C99.1881 27.4635 99.8187 27.7139 100.578 27.7139C101.337 27.7139 101.968 27.4635 102.47 26.9626C102.972 26.4506 103.223 25.8106 103.223 25.0426C103.223 24.2746 102.972 23.6402 102.47 23.1393C101.968 22.6272 101.337 22.3713 100.578 22.3713C99.8187 22.3713 99.1881 22.6272 98.6858 23.1393C98.1834 23.6402 97.9323 24.2746 97.9323 25.0426C97.9323 25.8106 98.1834 26.4506 98.6858 26.9626ZM110.622 29.4335C109.395 29.4335 108.351 29.0106 107.491 28.1647C106.632 27.3187 106.202 26.2781 106.202 25.0426C106.202 23.8071 106.632 22.7664 107.491 21.9205C108.351 21.0746 109.395 20.6516 110.622 20.6516C111.862 20.6516 112.905 21.0746 113.754 21.9205C114.613 22.7664 115.043 23.8071 115.043 25.0426C115.043 26.2781 114.613 27.3187 113.754 28.1647C112.905 29.0106 111.862 29.4335 110.622 29.4335ZM108.764 26.9292C109.266 27.4301 109.886 27.6805 110.622 27.6805C111.359 27.6805 111.979 27.4301 112.481 26.9292C112.983 26.4283 113.235 25.7994 113.235 25.0426C113.235 24.2858 112.983 23.6568 112.481 23.156C111.979 22.6551 111.359 22.4047 110.622 22.4047C109.886 22.4047 109.266 22.6551 108.764 23.156C108.262 23.6568 108.01 24.2858 108.01 25.0426C108.01 25.7994 108.262 26.4283 108.764 26.9292ZM120.629 29.4335C119.368 29.4335 118.313 29.0106 117.465 28.1647C116.627 27.3187 116.209 26.2781 116.209 25.0426C116.209 23.7959 116.627 22.7553 117.465 21.9205C118.313 21.0746 119.368 20.6516 120.629 20.6516C121.444 20.6516 122.186 20.8464 122.856 21.236C123.526 21.6255 124.028 22.1487 124.363 22.8054L122.806 23.7069C122.617 23.3062 122.327 22.9946 121.935 22.772C121.556 22.5382 121.115 22.4214 120.612 22.4214C119.876 22.4214 119.256 22.6718 118.754 23.1727C118.263 23.6735 118.017 24.2968 118.017 25.0426C118.017 25.7884 118.263 26.4116 118.754 26.9125C119.256 27.4134 119.876 27.6638 120.612 27.6638C121.104 27.6638 121.545 27.5469 121.935 27.3132C122.337 27.0795 122.639 26.7678 122.839 26.3782L124.397 27.2631C124.04 27.9309 123.526 28.4597 122.856 28.8492C122.186 29.2387 121.444 29.4335 120.629 29.4335ZM131.814 20.8687H133.204V29.2165H131.429V23.9073L127.143 29.2165H125.753V20.8687H127.528V26.1612L131.814 20.8687Z"
              fill="white"/>
    </g>
    <defs>
        <clipPath id="clip0_10897_14341">
            <rect width="135" height="48" fill="white"/>
        </clipPath>
    </defs>
</svg>
