<svg width="129" height="46" viewBox="0 0 129 46" fill="none" xmlns="http://www.w3.org/2000/svg">
    <path fill-rule="evenodd" clip-rule="evenodd"
          d="M15.7021 21.6774H20.6494V2.70234H15.7021V21.6774ZM12.9991 24.3816H23.3505V0H12.9991V24.3816Z"
          fill="#252628"/>
    <path fill-rule="evenodd" clip-rule="evenodd" d="M0 29.7313H43.9993V27.0375H0V29.7313Z" fill="#252628"/>
    <path fill-rule="evenodd" clip-rule="evenodd"
          d="M2.69304 40.2574H15.411V35.1149H2.69304V40.2574ZM0 46H2.69297V42.9479H18.1046V32.4218H0V46Z"
          fill="#252628"/>
    <path fill-rule="evenodd" clip-rule="evenodd"
          d="M33.6482 2.70164V24.3812H36.3494V8.10992L41.2956 2.70378V24.3812H43.9996V0H40.2029L36.3494 4.19945V0H32.5544L25.9966 7.08685V24.3812H28.7012V8.11099L33.6482 2.70164Z"
          fill="#252628"/>
    <path fill-rule="evenodd" clip-rule="evenodd"
          d="M23.4331 40.2574H30.9369V35.1149H23.4331V40.2574ZM33.7465 40.2574H41.3074V35.1149H33.7465V40.2574ZM20.7387 42.9479H30.9372V46H33.7465V42.9479H44V32.4218H20.7387V42.9479Z"
          fill="#252628"/>
    <path fill-rule="evenodd" clip-rule="evenodd"
          d="M2.70424 8.1117L7.64951 2.70449V21.6778H2.70424V8.1117ZM10.3528 24.3812V0H6.55746L0.000385994 7.08685V24.3812H10.3528Z"
          fill="#252628"/>
    <rect x="56" width="2" height="46" fill="#A3D562"/>
    <path d="M76.416 28.208C74.7307 28.208 73.3333 27.6533 72.224 26.544C71.1147 25.424 70.56 24.0427 70.56 22.4C70.56 20.7573 71.1147 19.3813 72.224 18.272C73.3333 17.152 74.7307 16.592 76.416 16.592C77.4293 16.592 78.3627 16.832 79.216 17.312C80.08 17.792 80.752 18.4427 81.232 19.264L79.632 20.192C79.3333 19.6373 78.896 19.2 78.32 18.88C77.7547 18.5493 77.12 18.384 76.416 18.384C75.2213 18.384 74.2507 18.7627 73.504 19.52C72.768 20.2773 72.4 21.2373 72.4 22.4C72.4 23.5627 72.768 24.5227 73.504 25.28C74.2507 26.0373 75.2213 26.416 76.416 26.416C77.12 26.416 77.76 26.256 78.336 25.936C78.912 25.6053 79.344 25.1627 79.632 24.608L81.232 25.52C80.7627 26.3413 80.096 26.9973 79.232 27.488C78.3787 27.968 77.44 28.208 76.416 28.208ZM89.8468 20V28H88.1188V21.632H84.4548V28H82.7268V20H89.8468ZM96.3798 19.792C97.4784 19.792 98.4171 20.2027 99.1958 21.024C99.9744 21.8347 100.364 22.8267 100.364 24C100.364 25.184 99.9744 26.1813 99.1958 26.992C98.4171 27.8027 97.4784 28.208 96.3798 28.208C95.1638 28.208 94.2304 27.76 93.5798 26.864V31.2H91.8518V20H93.5798V21.152C94.2304 20.2453 95.1638 19.792 96.3798 19.792ZM94.2998 25.84C94.7798 26.32 95.3824 26.56 96.1078 26.56C96.8331 26.56 97.4358 26.32 97.9158 25.84C98.3958 25.3493 98.6358 24.736 98.6358 24C98.6358 23.264 98.3958 22.656 97.9158 22.176C97.4358 21.6853 96.8331 21.44 96.1078 21.44C95.3824 21.44 94.7798 21.6853 94.2998 22.176C93.8198 22.656 93.5798 23.264 93.5798 24C93.5798 24.736 93.8198 25.3493 94.2998 25.84ZM105.706 28.208C104.533 28.208 103.535 27.8027 102.714 26.992C101.893 26.1813 101.482 25.184 101.482 24C101.482 22.816 101.893 21.8187 102.714 21.008C103.535 20.1973 104.533 19.792 105.706 19.792C106.89 19.792 107.887 20.1973 108.698 21.008C109.519 21.8187 109.93 22.816 109.93 24C109.93 25.184 109.519 26.1813 108.698 26.992C107.887 27.8027 106.89 28.208 105.706 28.208ZM103.93 25.808C104.41 26.288 105.002 26.528 105.706 26.528C106.41 26.528 107.002 26.288 107.482 25.808C107.962 25.328 108.202 24.7253 108.202 24C108.202 23.2747 107.962 22.672 107.482 22.192C107.002 21.712 106.41 21.472 105.706 21.472C105.002 21.472 104.41 21.712 103.93 22.192C103.45 22.672 103.21 23.2747 103.21 24C103.21 24.7253 103.45 25.328 103.93 25.808ZM115.268 28.208C114.063 28.208 113.055 27.8027 112.244 26.992C111.444 26.1813 111.044 25.184 111.044 24C111.044 22.8053 111.444 21.808 112.244 21.008C113.055 20.1973 114.063 19.792 115.268 19.792C116.047 19.792 116.756 19.9787 117.396 20.352C118.036 20.7253 118.516 21.2267 118.836 21.856L117.348 22.72C117.167 22.336 116.89 22.0373 116.516 21.824C116.154 21.6 115.732 21.488 115.252 21.488C114.548 21.488 113.956 21.728 113.476 22.208C113.007 22.688 112.772 23.2853 112.772 24C112.772 24.7147 113.007 25.312 113.476 25.792C113.956 26.272 114.548 26.512 115.252 26.512C115.722 26.512 116.143 26.4 116.516 26.176C116.9 25.952 117.188 25.6533 117.38 25.28L118.868 26.128C118.527 26.768 118.036 27.2747 117.396 27.648C116.756 28.0213 116.047 28.208 115.268 28.208ZM125.956 20H127.284V28H125.588V22.912L121.492 28H120.164V20H121.86V25.072L125.956 20Z"
          fill="#252628"/>
</svg>
